<mxfile host="app.diagrams.net" modified="2023-10-21T15:39:23.820Z" agent="Mozilla/5.0 (Windows NT 10.0; Win64; x64) AppleWebKit/537.36 (KHTML, like Gecko) Chrome/118.0.0.0 Safari/537.36" etag="wUVcfr0v4zOaUtUdFvDL" version="22.0.6" type="device">
  <diagram name="Page-1" id="Hv2gwuyREnh0acB_nE_q">
    <mxGraphModel dx="1036" dy="520" grid="1" gridSize="10" guides="1" tooltips="1" connect="1" arrows="1" fold="1" page="1" pageScale="1" pageWidth="850" pageHeight="1100" math="0" shadow="0">
      <root>
        <mxCell id="0" />
        <mxCell id="1" parent="0" />
        <mxCell id="lsn7WRXJTVAxYlywAgrg-1" value="&lt;font style=&quot;font-size: 14px;&quot;&gt;Restaurant Management&lt;/font&gt;" style="ellipse;whiteSpace=wrap;html=1;aspect=fixed;" vertex="1" parent="1">
          <mxGeometry x="83" y="370" width="90" height="90" as="geometry" />
        </mxCell>
        <mxCell id="lsn7WRXJTVAxYlywAgrg-42" value="&lt;font style=&quot;font-size: 14px;&quot;&gt;Order Management&lt;/font&gt;" style="ellipse;whiteSpace=wrap;html=1;aspect=fixed;" vertex="1" parent="1">
          <mxGeometry x="630" y="270" width="90" height="90" as="geometry" />
        </mxCell>
        <mxCell id="lsn7WRXJTVAxYlywAgrg-43" value="&lt;font style=&quot;font-size: 14px;&quot;&gt;Customer&lt;/font&gt;" style="rounded=0;whiteSpace=wrap;html=1;" vertex="1" parent="1">
          <mxGeometry x="100" y="175" width="120" height="60" as="geometry" />
        </mxCell>
        <mxCell id="lsn7WRXJTVAxYlywAgrg-44" value="&lt;font style=&quot;font-size: 14px;&quot;&gt;Admin&lt;/font&gt;" style="rounded=0;whiteSpace=wrap;html=1;" vertex="1" parent="1">
          <mxGeometry x="305" y="325" width="120" height="60" as="geometry" />
        </mxCell>
        <mxCell id="lsn7WRXJTVAxYlywAgrg-45" value="&lt;font style=&quot;font-size: 14px;&quot;&gt;Rider&lt;/font&gt;" style="rounded=0;whiteSpace=wrap;html=1;" vertex="1" parent="1">
          <mxGeometry x="600" y="459" width="120" height="60" as="geometry" />
        </mxCell>
        <mxCell id="lsn7WRXJTVAxYlywAgrg-46" value="&lt;font style=&quot;font-size: 14px;&quot;&gt;Restaurant&lt;/font&gt;" style="rounded=0;whiteSpace=wrap;html=1;" vertex="1" parent="1">
          <mxGeometry x="300" y="480" width="120" height="60" as="geometry" />
        </mxCell>
        <mxCell id="lsn7WRXJTVAxYlywAgrg-47" value="" style="endArrow=none;html=1;rounded=0;fontSize=38;fontStyle=1;strokeWidth=3;" edge="1" parent="1">
          <mxGeometry width="50" height="50" relative="1" as="geometry">
            <mxPoint x="570" y="154" as="sourcePoint" />
            <mxPoint x="700" y="154" as="targetPoint" />
          </mxGeometry>
        </mxCell>
        <mxCell id="lsn7WRXJTVAxYlywAgrg-48" value="" style="endArrow=none;html=1;rounded=0;fontSize=38;fontStyle=1;strokeWidth=3;" edge="1" parent="1">
          <mxGeometry width="50" height="50" relative="1" as="geometry">
            <mxPoint x="570" y="184" as="sourcePoint" />
            <mxPoint x="700" y="184" as="targetPoint" />
          </mxGeometry>
        </mxCell>
        <mxCell id="lsn7WRXJTVAxYlywAgrg-49" value="&lt;font style=&quot;font-size: 14px;&quot;&gt;Customer Database&lt;/font&gt;" style="text;html=1;align=center;verticalAlign=middle;resizable=0;points=[];autosize=1;strokeColor=none;fillColor=none;" vertex="1" parent="1">
          <mxGeometry x="560" y="154" width="150" height="30" as="geometry" />
        </mxCell>
        <mxCell id="lsn7WRXJTVAxYlywAgrg-53" value="" style="endArrow=none;html=1;rounded=0;fontSize=38;fontStyle=1;strokeWidth=3;" edge="1" parent="1">
          <mxGeometry width="50" height="50" relative="1" as="geometry">
            <mxPoint x="28" y="519" as="sourcePoint" />
            <mxPoint x="158" y="519" as="targetPoint" />
          </mxGeometry>
        </mxCell>
        <mxCell id="lsn7WRXJTVAxYlywAgrg-54" value="" style="endArrow=none;html=1;rounded=0;fontSize=38;fontStyle=1;strokeWidth=3;" edge="1" parent="1">
          <mxGeometry width="50" height="50" relative="1" as="geometry">
            <mxPoint x="28" y="549" as="sourcePoint" />
            <mxPoint x="158" y="549" as="targetPoint" />
          </mxGeometry>
        </mxCell>
        <mxCell id="lsn7WRXJTVAxYlywAgrg-55" value="&lt;font style=&quot;font-size: 14px;&quot;&gt;Restaurant Database&lt;/font&gt;" style="text;html=1;align=center;verticalAlign=middle;resizable=0;points=[];autosize=1;strokeColor=none;fillColor=none;" vertex="1" parent="1">
          <mxGeometry x="13" y="519" width="160" height="30" as="geometry" />
        </mxCell>
        <mxCell id="lsn7WRXJTVAxYlywAgrg-56" value="" style="endArrow=none;html=1;rounded=0;fontSize=38;fontStyle=1;strokeWidth=3;" edge="1" parent="1">
          <mxGeometry width="50" height="50" relative="1" as="geometry">
            <mxPoint x="790" y="350.00000000000006" as="sourcePoint" />
            <mxPoint x="920" y="350.00000000000006" as="targetPoint" />
          </mxGeometry>
        </mxCell>
        <mxCell id="lsn7WRXJTVAxYlywAgrg-57" value="" style="endArrow=none;html=1;rounded=0;fontSize=38;fontStyle=1;strokeWidth=3;" edge="1" parent="1">
          <mxGeometry width="50" height="50" relative="1" as="geometry">
            <mxPoint x="790" y="380.00000000000006" as="sourcePoint" />
            <mxPoint x="920" y="380.00000000000006" as="targetPoint" />
          </mxGeometry>
        </mxCell>
        <mxCell id="lsn7WRXJTVAxYlywAgrg-58" value="&lt;font style=&quot;font-size: 14px;&quot;&gt;Order Database&lt;/font&gt;" style="text;html=1;align=center;verticalAlign=middle;resizable=0;points=[];autosize=1;strokeColor=none;fillColor=none;" vertex="1" parent="1">
          <mxGeometry x="795" y="350.00000000000006" width="120" height="30" as="geometry" />
        </mxCell>
        <mxCell id="lsn7WRXJTVAxYlywAgrg-59" value="Customer info" style="endArrow=classic;html=1;rounded=0;entryX=0;entryY=0.5;entryDx=0;entryDy=0;exitX=1;exitY=0;exitDx=0;exitDy=0;" edge="1" parent="1" source="lsn7WRXJTVAxYlywAgrg-43" target="lsn7WRXJTVAxYlywAgrg-60">
          <mxGeometry y="15" width="50" height="50" relative="1" as="geometry">
            <mxPoint x="325.00000000000387" y="300" as="sourcePoint" />
            <mxPoint x="462.00000000000387" y="380" as="targetPoint" />
            <mxPoint as="offset" />
          </mxGeometry>
        </mxCell>
        <mxCell id="lsn7WRXJTVAxYlywAgrg-60" value="&lt;font style=&quot;font-size: 14px;&quot;&gt;Customer Management&lt;/font&gt;" style="ellipse;whiteSpace=wrap;html=1;aspect=fixed;" vertex="1" parent="1">
          <mxGeometry x="360" y="130" width="90" height="90" as="geometry" />
        </mxCell>
        <mxCell id="lsn7WRXJTVAxYlywAgrg-62" value="Customer info" style="endArrow=classic;html=1;rounded=0;entryX=0.067;entryY=0.7;entryDx=0;entryDy=0;exitX=1;exitY=0.5;exitDx=0;exitDy=0;entryPerimeter=0;" edge="1" parent="1" source="lsn7WRXJTVAxYlywAgrg-60" target="lsn7WRXJTVAxYlywAgrg-49">
          <mxGeometry x="-0.0004" y="15" width="50" height="50" relative="1" as="geometry">
            <mxPoint x="325" y="159" as="sourcePoint" />
            <mxPoint x="410" y="129" as="targetPoint" />
            <mxPoint as="offset" />
          </mxGeometry>
        </mxCell>
        <mxCell id="lsn7WRXJTVAxYlywAgrg-68" value="Verify Customer" style="endArrow=classic;html=1;rounded=0;entryX=0.987;entryY=0.42;entryDx=0;entryDy=0;exitX=0.044;exitY=0.746;exitDx=0;exitDy=0;exitPerimeter=0;entryPerimeter=0;" edge="1" parent="1" source="lsn7WRXJTVAxYlywAgrg-60" target="lsn7WRXJTVAxYlywAgrg-43">
          <mxGeometry x="0.1581" y="-10" width="50" height="50" relative="1" as="geometry">
            <mxPoint x="370" y="218" as="sourcePoint" />
            <mxPoint x="235" y="278" as="targetPoint" />
            <mxPoint as="offset" />
          </mxGeometry>
        </mxCell>
        <mxCell id="lsn7WRXJTVAxYlywAgrg-70" value="add / edit / remove&lt;br&gt;restaurant" style="endArrow=classic;html=1;rounded=0;entryX=1;entryY=0;entryDx=0;entryDy=0;exitX=0;exitY=1;exitDx=0;exitDy=0;" edge="1" parent="1" source="lsn7WRXJTVAxYlywAgrg-44" target="lsn7WRXJTVAxYlywAgrg-1">
          <mxGeometry y="-15" width="50" height="50" relative="1" as="geometry">
            <mxPoint x="245" y="297" as="sourcePoint" />
            <mxPoint x="380" y="237" as="targetPoint" />
            <mxPoint as="offset" />
          </mxGeometry>
        </mxCell>
        <mxCell id="lsn7WRXJTVAxYlywAgrg-73" value="" style="endArrow=classic;html=1;rounded=0;entryX=1.022;entryY=0.719;entryDx=0;entryDy=0;exitX=0;exitY=0;exitDx=0;exitDy=0;entryPerimeter=0;" edge="1" parent="1" source="lsn7WRXJTVAxYlywAgrg-46" target="lsn7WRXJTVAxYlywAgrg-1">
          <mxGeometry y="-15" width="50" height="50" relative="1" as="geometry">
            <mxPoint x="315" y="395" as="sourcePoint" />
            <mxPoint x="187" y="393" as="targetPoint" />
            <mxPoint as="offset" />
          </mxGeometry>
        </mxCell>
        <mxCell id="lsn7WRXJTVAxYlywAgrg-74" value="update menu /&lt;br&gt;promotions" style="text;html=1;align=center;verticalAlign=middle;resizable=0;points=[];autosize=1;strokeColor=none;fillColor=none;rotation=20;" vertex="1" parent="1">
          <mxGeometry x="205" y="420" width="100" height="40" as="geometry" />
        </mxCell>
        <mxCell id="lsn7WRXJTVAxYlywAgrg-75" value="" style="endArrow=classic;html=1;rounded=0;entryX=0.25;entryY=1;entryDx=0;entryDy=0;exitX=0.5;exitY=0;exitDx=0;exitDy=0;" edge="1" parent="1" source="lsn7WRXJTVAxYlywAgrg-1" target="lsn7WRXJTVAxYlywAgrg-43">
          <mxGeometry y="-15" width="50" height="50" relative="1" as="geometry">
            <mxPoint x="315" y="395" as="sourcePoint" />
            <mxPoint x="187" y="393" as="targetPoint" />
            <mxPoint as="offset" />
          </mxGeometry>
        </mxCell>
        <mxCell id="lsn7WRXJTVAxYlywAgrg-76" value="Menu details" style="text;html=1;align=center;verticalAlign=middle;resizable=0;points=[];autosize=1;strokeColor=none;fillColor=none;rotation=90;" vertex="1" parent="1">
          <mxGeometry x="70" y="290" width="90" height="30" as="geometry" />
        </mxCell>
        <mxCell id="lsn7WRXJTVAxYlywAgrg-77" value="" style="endArrow=classic;html=1;rounded=0;entryX=0.163;entryY=-0.067;entryDx=0;entryDy=0;exitX=0;exitY=0.5;exitDx=0;exitDy=0;entryPerimeter=0;" edge="1" parent="1" source="lsn7WRXJTVAxYlywAgrg-1" target="lsn7WRXJTVAxYlywAgrg-55">
          <mxGeometry y="-15" width="50" height="50" relative="1" as="geometry">
            <mxPoint x="315" y="395" as="sourcePoint" />
            <mxPoint x="170" y="393" as="targetPoint" />
            <mxPoint as="offset" />
          </mxGeometry>
        </mxCell>
        <mxCell id="lsn7WRXJTVAxYlywAgrg-78" value="Store restaurant info" style="text;html=1;align=center;verticalAlign=middle;resizable=0;points=[];autosize=1;strokeColor=none;fillColor=none;rotation=-60;" vertex="1" parent="1">
          <mxGeometry x="-20" y="440" width="130" height="30" as="geometry" />
        </mxCell>
        <mxCell id="lsn7WRXJTVAxYlywAgrg-81" value="" style="endArrow=classic;html=1;rounded=0;entryX=0.389;entryY=0.037;entryDx=0;entryDy=0;exitX=0.364;exitY=1.133;exitDx=0;exitDy=0;entryPerimeter=0;exitPerimeter=0;" edge="1" parent="1" source="lsn7WRXJTVAxYlywAgrg-49" target="lsn7WRXJTVAxYlywAgrg-42">
          <mxGeometry x="-0.0021" y="15" width="50" height="50" relative="1" as="geometry">
            <mxPoint x="460" y="185" as="sourcePoint" />
            <mxPoint x="580" y="185" as="targetPoint" />
            <mxPoint as="offset" />
          </mxGeometry>
        </mxCell>
        <mxCell id="lsn7WRXJTVAxYlywAgrg-82" value="Customer info" style="text;html=1;align=center;verticalAlign=middle;resizable=0;points=[];autosize=1;strokeColor=none;fillColor=none;rotation=60;" vertex="1" parent="1">
          <mxGeometry x="600" y="205" width="100" height="30" as="geometry" />
        </mxCell>
        <mxCell id="lsn7WRXJTVAxYlywAgrg-83" value="Food info" style="endArrow=classic;html=1;rounded=0;entryX=-0.022;entryY=0.63;entryDx=0;entryDy=0;exitX=0.967;exitY=0.444;exitDx=0;exitDy=0;entryPerimeter=0;exitPerimeter=0;" edge="1" parent="1" source="lsn7WRXJTVAxYlywAgrg-1" target="lsn7WRXJTVAxYlywAgrg-42">
          <mxGeometry x="0.6797" y="21" width="50" height="50" relative="1" as="geometry">
            <mxPoint x="460" y="185" as="sourcePoint" />
            <mxPoint x="580" y="185" as="targetPoint" />
            <mxPoint as="offset" />
            <Array as="points">
              <mxPoint x="450" y="410" />
            </Array>
          </mxGeometry>
        </mxCell>
        <mxCell id="lsn7WRXJTVAxYlywAgrg-85" value="" style="endArrow=classic;html=1;rounded=0;exitX=1;exitY=0;exitDx=0;exitDy=0;" edge="1" parent="1" source="lsn7WRXJTVAxYlywAgrg-46" target="lsn7WRXJTVAxYlywAgrg-42">
          <mxGeometry x="0.7179" y="-25" width="50" height="50" relative="1" as="geometry">
            <mxPoint x="230" y="185" as="sourcePoint" />
            <mxPoint x="370" y="185" as="targetPoint" />
            <mxPoint as="offset" />
          </mxGeometry>
        </mxCell>
        <mxCell id="lsn7WRXJTVAxYlywAgrg-86" value="Order info" style="endArrow=classic;html=1;rounded=0;entryX=0.75;entryY=0;entryDx=0;entryDy=0;exitX=1;exitY=0.5;exitDx=0;exitDy=0;" edge="1" parent="1" source="lsn7WRXJTVAxYlywAgrg-42" target="lsn7WRXJTVAxYlywAgrg-43">
          <mxGeometry x="-0.9333" y="15" width="50" height="50" relative="1" as="geometry">
            <mxPoint x="230" y="185" as="sourcePoint" />
            <mxPoint x="370" y="185" as="targetPoint" />
            <mxPoint as="offset" />
            <Array as="points">
              <mxPoint x="780" y="315" />
              <mxPoint x="780" y="220" />
              <mxPoint x="780" y="120" />
              <mxPoint x="190" y="120" />
            </Array>
          </mxGeometry>
        </mxCell>
        <mxCell id="lsn7WRXJTVAxYlywAgrg-87" value="Update order info" style="endArrow=classic;html=1;rounded=0;entryX=-0.042;entryY=1.016;entryDx=0;entryDy=0;exitX=0.5;exitY=1;exitDx=0;exitDy=0;entryPerimeter=0;" edge="1" parent="1" source="lsn7WRXJTVAxYlywAgrg-42" target="lsn7WRXJTVAxYlywAgrg-58">
          <mxGeometry x="-0.0004" y="15" width="50" height="50" relative="1" as="geometry">
            <mxPoint x="460" y="185" as="sourcePoint" />
            <mxPoint x="580" y="185" as="targetPoint" />
            <mxPoint as="offset" />
            <Array as="points">
              <mxPoint x="675" y="380" />
            </Array>
          </mxGeometry>
        </mxCell>
        <mxCell id="lsn7WRXJTVAxYlywAgrg-88" value="Rider info" style="endArrow=classic;html=1;rounded=0;entryX=0.422;entryY=1.03;entryDx=0;entryDy=0;entryPerimeter=0;" edge="1" parent="1" source="lsn7WRXJTVAxYlywAgrg-45" target="lsn7WRXJTVAxYlywAgrg-42">
          <mxGeometry x="-0.1565" y="-26" width="50" height="50" relative="1" as="geometry">
            <mxPoint x="430" y="490" as="sourcePoint" />
            <mxPoint x="647" y="349" as="targetPoint" />
            <mxPoint as="offset" />
          </mxGeometry>
        </mxCell>
        <mxCell id="lsn7WRXJTVAxYlywAgrg-89" value="Restaurant info" style="text;html=1;align=center;verticalAlign=middle;resizable=0;points=[];autosize=1;strokeColor=none;fillColor=none;rotation=-35;" vertex="1" parent="1">
          <mxGeometry x="470" y="390" width="100" height="30" as="geometry" />
        </mxCell>
        <mxCell id="lsn7WRXJTVAxYlywAgrg-90" value="Order info" style="endArrow=classic;html=1;rounded=0;entryX=0.25;entryY=0;entryDx=0;entryDy=0;" edge="1" parent="1" source="lsn7WRXJTVAxYlywAgrg-42" target="lsn7WRXJTVAxYlywAgrg-45">
          <mxGeometry x="0.7279" y="-32" width="50" height="50" relative="1" as="geometry">
            <mxPoint x="230" y="185" as="sourcePoint" />
            <mxPoint x="370" y="185" as="targetPoint" />
            <mxPoint as="offset" />
          </mxGeometry>
        </mxCell>
        <mxCell id="lsn7WRXJTVAxYlywAgrg-91" value="Order info" style="endArrow=classic;html=1;rounded=0;entryX=1;entryY=1;entryDx=0;entryDy=0;exitX=0;exitY=1;exitDx=0;exitDy=0;" edge="1" parent="1" source="lsn7WRXJTVAxYlywAgrg-42" target="lsn7WRXJTVAxYlywAgrg-46">
          <mxGeometry x="0.6039" y="24" width="50" height="50" relative="1" as="geometry">
            <mxPoint x="653" y="357" as="sourcePoint" />
            <mxPoint x="640" y="469" as="targetPoint" />
            <mxPoint as="offset" />
          </mxGeometry>
        </mxCell>
      </root>
    </mxGraphModel>
  </diagram>
</mxfile>
